<svg id="Layer_1" data-name="Layer 1" xmlns="http://www.w3.org/2000/svg" viewBox="0 0 300.25 281.19">
  <defs>
    <style>
      .cls-1 {
        fill: #9acd8d;
      }
    </style>
  </defs>
  <g>
    <path class="cls-1" d="M330.28,83.4H65.77A17.9,17.9,0,0,0,47.9,101.28V289a5.71,5.71,0,0,0,.2,1.5,5.71,5.71,0,0,0-.2,1.5v11.92a6,6,0,0,0,12,0V298H65a6,6,0,1,0,0-12H59.9V228.68h88.48V286H134a6,6,0,1,0,0,12h23a6,6,0,0,0,0-12h-4.6V228.68h91.88v56.19h4V228.68h87.89V286H318a6,6,0,0,0,0,12h23a6,6,0,0,0,6-5.42,6,6,0,0,0,1.2-3.58V101.28A17.9,17.9,0,0,0,330.28,83.4Zm-86,12V150H152.38V95.4ZM59.9,101.28a5.89,5.89,0,0,1,5.87-5.88h82.61V150H59.9Zm0,115V162h88.48v54.28Zm92.48,0V162h91.88v54.28Zm183.77,0H248.26V162h87.89Zm0-66.28H248.26V95.4h82a5.89,5.89,0,0,1,5.87,5.88Z" transform="translate(-47.9 -83.4)"/>
    <path class="cls-1" d="M189.47,352.6h-23a6,6,0,0,0,0,12h23a6,6,0,1,0,0-12Z" transform="translate(-47.9 -83.4)"/>
    <path class="cls-1" d="M143.47,352.6h-23a6,6,0,0,0,0,12h23a6,6,0,1,0,0-12Z" transform="translate(-47.9 -83.4)"/>
    <path class="cls-1" d="M59.9,343.92v-17a6,6,0,0,0-12,0v17a20.38,20.38,0,0,0,1.68,8.16,6,6,0,0,0,5.51,3.63,5.86,5.86,0,0,0,2.37-.49,6,6,0,0,0,3.14-7.88A8.68,8.68,0,0,1,59.9,343.92Z" transform="translate(-47.9 -83.4)"/>
    <path class="cls-1" d="M117,292a6,6,0,0,0-6-6H88a6,6,0,0,0,0,12h23A6,6,0,0,0,117,292Z" transform="translate(-47.9 -83.4)"/>
    <path class="cls-1" d="M97.47,352.6h-23a6,6,0,0,0,0,12h23a6,6,0,1,0,0-12Z" transform="translate(-47.9 -83.4)"/>
    <path class="cls-1" d="M209,292a6,6,0,0,0-6-6H180a6,6,0,1,0,0,12h23A6,6,0,0,0,209,292Z" transform="translate(-47.9 -83.4)"/>
    <path class="cls-1" d="M331.55,351.58a8.6,8.6,0,0,1-4.08,1h-23a6,6,0,0,0,0,12h23a20.82,20.82,0,0,0,9.73-2.43,6,6,0,1,0-5.65-10.59Z" transform="translate(-47.9 -83.4)"/>
    <path class="cls-1" d="M301,292a6,6,0,0,0-6-6H272a6,6,0,0,0,0,12h23A6,6,0,0,0,301,292Z" transform="translate(-47.9 -83.4)"/>
    <path class="cls-1" d="M342.15,307.79a6,6,0,0,0-6,6v23a6,6,0,1,0,12,0v-23A6,6,0,0,0,342.15,307.79Z" transform="translate(-47.9 -83.4)"/>
    <path class="cls-1" d="M281.47,352.6h-23a6,6,0,0,0,0,12h23a6,6,0,0,0,0-12Z" transform="translate(-47.9 -83.4)"/>
    <path class="cls-1" d="M235.47,352.6h-23a6,6,0,0,0,0,12h23a6,6,0,1,0,0-12Z" transform="translate(-47.9 -83.4)"/>
    <path class="cls-1" d="M255,292a6,6,0,0,0-6-6H226a6,6,0,1,0,0,12h23A6,6,0,0,0,255,292Z" transform="translate(-47.9 -83.4)"/>
  </g>
</svg>
