<svg id="Layer_1" data-name="Layer 1" xmlns="http://www.w3.org/2000/svg" viewBox="0 0 393.96 250">
  <path d="M368,103.76a7.51,7.51,0,0,0-7.31-4.55c-66.27,6.35-118.92,62.33-131.43,76.13H166.92c-12.21-13.49-65-69.95-131.6-76.32A7.51,7.51,0,0,0,28,103.57C21.09,117.74,1,141.4,1,225.28s31.12,123.55,34.1,123.53H36c67.93-6.31,121.39-65.67,132.32-77h59.28c10.56,10.89,64.22,70.85,132.51,77.19h.83c3,0,34.1-39.66,34.1-123.53S375,117.93,368,103.76ZM171.42,192.89h53.21v59.64H171.42ZM17.3,224.38v-.9a260.68,260.68,0,0,1,22-106.27c57.74,8.17,105.7,59,116.28,70.85v26.33h-24.4c-4.49,0-8.12,4.06-8.12,9.08a9.07,9.07,0,0,0,5.21,8.45,7.3,7.3,0,0,0,3.34.82h24V258.9C145,270.69,97.8,321.58,39.26,329.75A259.43,259.43,0,0,1,17.3,224.38ZM356.79,329.94c-58.54-8.17-105.7-59.06-116.28-70.84V232.74h24.4c4.49,0,8.12-4.07,8.12-9.08a9.09,9.09,0,0,0-5.21-8.46,7.42,7.42,0,0,0-3.34-.81h-24V188.25c10.58-11.82,58.54-62.68,116.28-70.85a260.68,260.68,0,0,1,22,106.27v.9A259.43,259.43,0,0,1,356.79,329.94Z" transform="translate(-1.04 -99)"/>
</svg>
